<svg xmlns="http://www.w3.org/2000/svg" viewBox="0 0 512 512" width="512" height="512">
  <defs>
    <linearGradient id="bgGrad" x1="0%" y1="0%" x2="100%" y2="100%">
      <stop offset="0%" stop-color="#002D62" />
      <stop offset="50%" stop-color="#071E3D" />
      <stop offset="100%" stop-color="#020B17" />
    </linearGradient>
    <linearGradient id="leafGrad" x1="0%" y1="0%" x2="0%" y2="100%">
      <stop offset="0%" stop-color="#FF1E38" />
      <stop offset="100%" stop-color="#B0041B" />
    </linearGradient>
    <filter id="glow" x="-20%" y="-20%" width="140%" height="140%">
      <feDropShadow dx="0" dy="12" stdDeviation="16" flood-color="#000000" flood-opacity="0.45"/>
    </filter>
  </defs>

  <rect width="512" height="512" rx="112" fill="url(#bgGrad)"/>
  <rect x="32" y="24" width="448" height="10" rx="5" fill="#E00624" opacity="0.9"/>
  <circle cx="256" cy="235" r="160" fill="#FFFFFF" opacity="0.06"/>
  <circle cx="256" cy="235" r="150" fill="#0A2244" stroke="#CCE3F8" stroke-width="4" stroke-opacity="0.25"/>

  <g transform="translate(256, 235) scale(2.8)" filter="url(#glow)">
    <path fill="url(#leafGrad)" d="M0 -45 L7 -29 L19 -36 L16 -20 L32 -25 L25 -10 L36 -4 L16 0 L19 15 L5 8 L5 27 H-5 V8 L-19 15 L-16 0 L-36 -4 L-25 -10 L-32 -25 L-16 -20 L-19 -36 L-7 -29 Z"/>
    <text x="0" y="4" fill="#FFFFFF" font-family="-apple-system, system-ui, 'Noto Sans Tamil', 'Tamil MN', sans-serif" font-size="34" font-weight="900" text-anchor="middle" dominant-baseline="central">த</text>
  </g>

  <text x="256" y="430" fill="#FFFFFF" font-family="-apple-system, system-ui, 'Outfit', 'Segoe UI', sans-serif" font-size="34" font-weight="900" text-anchor="middle" letter-spacing="3">TAMIL PAGES</text>
  <text x="256" y="465" fill="#FFD700" font-family="-apple-system, system-ui, 'Work Sans', sans-serif" font-size="20" font-weight="800" text-anchor="middle" letter-spacing="6">CANADA 🍁</text>
</svg>